<svg xmlns="http://www.w3.org/2000/svg" width="357" height="604" viewBox="0 0 357 604" fill="none"><path fill-rule="evenodd" clip-rule="evenodd" d="M412.713 24.6876C425.997 20.43 440.088 17.8938 454.352 16.9853L455.305 18.5611C440.891 19.4207 426.638 21.954 413.206 26.2555C373.083 39.101 338.211 65.8998 300.134 113.139C266.378 155.026 238.766 196.171 218.066 235.439C201.06 267.699 191.436 300.666 181.25 335.57C178.609 344.598 175.885 353.937 173.04 363.182C170.096 372.773 166.926 382.468 163.86 391.845C159.566 404.967 155.14 418.534 151.233 432.009C150.489 434.613 149.67 437.3 148.836 440.05C143.574 457.432 137.615 477.127 141.107 494.091C142.066 498.73 143.731 503.055 146.084 506.946L146.089 506.953C162.898 534.713 211.435 536.384 231.524 535.811C267.744 534.779 303.902 528.31 339.151 521.311L335.035 523.8C301.123 530.467 266.394 536.462 231.56 537.458C206.246 538.178 161.3 535.279 144.682 507.804L144.678 507.796C142.23 503.75 140.48 499.252 139.488 494.435C135.911 477.057 141.94 457.152 147.259 439.587C148.087 436.838 148.899 434.158 149.648 431.56C153.554 418.057 157.995 404.482 162.281 391.345C165.351 381.975 168.514 372.286 171.465 362.707C174.302 353.477 177.026 344.139 179.66 335.116C189.872 300.13 199.515 267.085 216.603 234.683C237.356 195.319 265.026 154.084 298.849 112.109C337.14 64.6079 372.257 37.6435 412.713 24.6876Z" fill="#F6F6F6"></path><path fill-rule="evenodd" clip-rule="evenodd" d="M418.698 50.6129C437.251 46.4677 458.811 47.1239 477.157 54.6907L478.636 57.1349C460.184 48.8383 438.028 47.9831 419.053 52.2165C385.133 59.7822 353.166 80.9904 321.311 117.047C291.675 150.606 263.769 192.05 240.622 236.909C220.232 276.416 210.268 316.881 201.578 365.481C201.19 367.644 200.776 369.889 200.354 372.214C194.657 403.303 186.85 445.885 203.186 472.894L203.19 472.902C205.775 477.175 208.934 480.95 212.57 484.123C237.449 505.807 273.98 504.875 309.763 500.638C343.824 496.604 377.267 488.039 409.957 478.486L404.523 481.773C373.645 490.65 342.087 498.466 309.942 502.273C273.794 506.553 236.842 507.47 211.474 485.364C207.715 482.079 204.452 478.18 201.777 473.757C201.772 473.749 201.772 473.749 201.772 473.749C185.114 446.207 192.98 403.273 198.729 371.929C199.151 369.604 199.563 367.36 199.949 365.208C208.666 316.452 218.67 275.851 239.154 236.164C262.361 191.186 290.342 149.622 320.078 115.966C352.165 79.629 384.431 58.2487 418.698 50.6129Z" fill="#F6F6F6"></path><path fill-rule="evenodd" clip-rule="evenodd" d="M460.924 113.689C470.712 129.873 473.668 154.367 469.714 186.489C463.82 234.346 462.599 282.241 462.154 326.868C462.127 329.551 462.115 332.262 462.108 334.978C462.065 352.495 462.008 370.605 456.769 387.33C449.409 410.8 431.046 426.651 416.933 435.811C413.029 438.34 408.66 440.937 403.567 443.736C363.038 460.288 319.796 474.032 278.782 462.359C264.044 458.155 252.696 449.626 245.063 437.006L245.059 436.999C230.993 413.743 231.615 380.737 233.305 357.926C238.959 281.481 275.577 203.48 336.398 138.306C357.736 115.444 390.209 85.6803 425.728 91.1209C441.486 93.5432 453.328 101.13 460.924 113.689ZM243.644 437.853L243.648 437.86C251.505 450.85 263.169 459.625 278.317 463.935C319.819 475.753 363.382 461.924 404.275 445.218C409.489 442.354 413.892 439.737 417.831 437.187C432.168 427.873 450.84 411.75 458.345 387.811C463.658 370.855 463.708 352.609 463.759 334.966C463.77 332.256 463.779 329.556 463.805 326.874C464.251 282.292 465.47 234.456 471.35 186.672C475.354 154.184 472.324 129.336 462.341 112.83C454.485 99.8406 442.249 91.9892 425.99 89.4892C389.69 83.9319 356.788 114.049 335.19 137.189C274.111 202.631 237.336 280.988 231.652 357.816C229.943 380.842 229.339 414.201 243.644 437.853Z" fill="#F6F6F6"></path><path fill-rule="evenodd" clip-rule="evenodd" d="M368.99 418.23C350.694 425.604 316.763 435.369 293.501 418.765C287.087 414.188 281.711 408.351 277.512 401.409C266.134 382.597 262.883 355.27 267.857 320.182C275.901 263.36 311.589 201.425 358.772 162.383C373.546 150.156 394.461 137.367 410.25 145.838C415.165 148.478 419.27 152.474 422.449 157.73C433.307 175.682 431.969 205.532 431.085 225.28C430.984 227.504 430.893 229.62 430.817 231.606C430.395 242.993 430.296 254.556 430.208 265.74C430.026 288.394 429.832 311.809 426.88 334.598C424.764 350.954 419.795 366.49 411.263 383.489C403.606 398.731 387.857 407.603 372.626 416.18C371.412 416.869 370.192 417.549 368.99 418.23ZM271.841 404.84L271.846 404.847C276.508 412.541 282.489 419.04 289.636 424.134C315.541 442.626 352.145 432.149 371.657 424.255L372.052 424.062C373.308 423.349 374.571 422.631 375.852 421.912C391.208 413.268 408.604 403.464 417.171 386.414C426.053 368.727 431.224 352.521 433.439 335.406C436.441 312.224 436.634 288.603 436.821 265.761C436.916 254.618 437.004 243.098 437.425 231.815C437.497 229.84 437.591 227.743 437.692 225.537C438.609 204.995 440.001 173.956 428.115 154.304C424.322 148.032 419.375 143.229 413.412 140.029C398.136 131.835 378.34 137.655 354.571 157.317C306.184 197.36 269.572 260.943 261.313 319.302C256.118 355.923 259.662 384.703 271.841 404.84Z" fill="#F6F6F6"></path><path fill-rule="evenodd" clip-rule="evenodd" d="M381.489 234.452C389.816 248.22 391.557 272.878 392.215 282.169C393.776 304.26 392.949 357.603 351.645 375.628C329.859 381.813 317.956 371.029 311.821 360.885C305.957 351.204 302.702 337.482 302.883 323.231C303.114 304.825 308.308 286.003 317.908 268.796C322.855 259.929 340.738 230.598 363.136 225.321C370.587 223.566 376.761 226.636 381.489 234.452ZM310.402 361.743C316.834 372.378 329.3 383.68 352.194 377.171C394.575 358.688 395.448 304.487 393.861 282.039C393.198 272.651 391.434 247.707 382.901 233.597C377.761 225.099 370.987 221.775 362.76 223.711C339.7 229.146 321.495 258.991 316.465 267.999C306.731 285.446 301.459 304.539 301.227 323.223C301.046 337.765 304.391 351.805 310.402 361.743Z" fill="#F6F6F6"></path></svg>