<svg xmlns="http://www.w3.org/2000/svg" width="344" height="452" viewBox="0 0 344 452" fill="none"><path fill-rule="evenodd" clip-rule="evenodd" d="M327.39 445.707C320.435 443.373 313.246 440.954 306.245 438.726C272.584 428.009 234.486 414.216 208.387 385.935C188.689 364.587 183.468 336.003 178.417 308.353C177.039 300.788 175.613 292.974 173.91 285.435C169.747 266.995 164.617 248.502 158.225 228.905C156.264 222.867 154.404 216.56 152.611 210.448C148.75 197.313 144.756 183.741 139.225 171.229C130.909 152.449 114.655 147.229 101.418 144.769C84.7499 141.686 67.0829 137.956 50.4791 129.395C24.5489 116.015 5.74932 92.884 -8.6789 56.6052C-16.0546 38.0517 -22.6604 18.8314 -29 0V16.6097C-24.1687 30.6697 -19.1182 44.8067 -13.6328 58.5999C1.09305 95.6426 21.272 120.366 48.0441 134.174C65.2962 143.071 83.396 146.906 100.453 150.066C118.437 153.395 128.572 160.375 134.342 173.417C139.737 185.606 143.68 199.01 147.488 211.976C149.295 218.114 151.167 224.475 153.155 230.576C159.495 250.013 164.578 268.353 168.703 286.629C170.381 294.067 171.792 301.823 173.166 309.324C178.353 337.728 183.721 367.102 204.476 389.595C231.462 418.842 270.323 432.933 304.64 443.85C311.595 446.068 318.764 448.476 325.699 450.811C326.12 450.949 326.547 451.092 326.968 451.235H344C338.431 449.421 332.894 447.559 327.39 445.707Z" fill="#F6F6F6"></path><path fill-rule="evenodd" clip-rule="evenodd" d="M148.959 427.198C131.707 418.906 122.083 409.505 118.684 397.611C114.623 383.42 118.495 368.38 122.238 353.85C122.654 352.258 123.061 350.677 123.456 349.096C134.64 304.481 132.263 268.21 116.184 238.215C100.648 209.228 73.9026 191.292 48.0377 173.949C21.7457 156.322 -5.44015 138.098 -20.7432 108.27C-23.9034 102.119 -26.6101 95.719 -29 89.1917V92.9742C-26.9018 98.4007 -24.5772 103.724 -21.9283 108.892C-6.47093 139.031 20.8651 157.344 47.2923 175.075C73.0283 192.326 99.6306 210.162 115.011 238.852C130.923 268.539 133.261 304.491 122.161 348.773C121.766 350.343 121.358 351.919 120.951 353.51C117.336 367.542 113.237 383.431 117.395 397.977C122.018 414.142 137.296 423.076 148.382 428.402C168.969 438.28 190.65 445.431 212.325 451.235H217.597C194.354 445.214 171.016 437.776 148.959 427.198Z" fill="#F6F6F6"></path><path fill-rule="evenodd" clip-rule="evenodd" d="M72.97 251.854C59.7258 223.812 34.5028 205.875 10.1138 188.533C-3.39398 178.923 -17.1554 169.131 -29 157.551V159.391C-17.3055 170.658 -3.86083 180.23 9.34351 189.62C33.5957 206.873 58.6717 224.708 71.7657 252.427C98.8736 309.828 40.0466 362.672 1.11958 397.638L-3.60194 401.903C-12.4084 409.839 -21.1315 418.248 -29 427.548V429.643C-20.9113 419.919 -11.8646 411.15 -2.71493 402.9L2.00659 398.651C41.2313 363.409 100.505 310.162 72.97 251.854Z" fill="#F6F6F6"></path><path fill-rule="evenodd" clip-rule="evenodd" d="M34.7882 276.878C33.4726 252.528 17.9563 234.692 4.58379 221.881C-5.5054 212.22 -16.7665 203.207 -29 194.941V196.575C-17.1166 204.66 -6.16589 213.44 3.66442 222.857C16.8555 235.509 32.1713 253.069 33.454 276.958C34.6195 298.635 24.4975 317.017 15.7998 328.608C3.231 345.367 -13.1023 358.9 -29 371.945V373.68C-12.7718 360.38 3.98113 346.598 16.8624 329.409C25.6953 317.637 35.9723 298.974 34.7882 276.878Z" fill="#F6F6F6"></path></svg>